<?xml version="1.0" standalone="no"?>
<!DOCTYPE svg PUBLIC "-//W3C//DTD SVG 20010904//EN"
 "http://www.w3.org/TR/2001/REC-SVG-20010904/DTD/svg10.dtd">
<svg version="1.0" xmlns="http://www.w3.org/2000/svg"
 width="512.000000pt" height="512.000000pt" viewBox="0 0 512.000000 512.000000"
 preserveAspectRatio="xMidYMid meet">
<metadata>
Created by potrace 1.14, written by Peter Selinger 2001-2017
</metadata>
<g transform="translate(0.000000,512.000000) scale(0.100000,-0.100000)"
fill="#000000" stroke="none">
<path d="M2209 5105 c-2 -2 -69 -6 -149 -10 -80 -3 -163 -8 -185 -10 -22 -2
-71 -6 -110 -10 -38 -3 -83 -8 -100 -10 -16 -3 -52 -7 -80 -10 -103 -11 -144
-17 -290 -47 -235 -46 -371 -100 -398 -157 -9 -18 -13 -73 -12 -173 l1 -148
-135 -1 c-186 -1 -230 -6 -319 -35 -150 -51 -290 -171 -357 -309 -48 -100 -52
-109 -64 -170 -9 -47 -7 -247 2 -263 3 -4 8 -23 11 -42 3 -19 15 -87 26 -150
12 -63 23 -126 25 -140 5 -28 32 -182 40 -220 3 -14 14 -77 25 -140 74 -424
87 -479 142 -578 48 -87 170 -202 259 -246 143 -70 159 -72 678 -71 l463 0 82
-89 c110 -120 328 -339 400 -402 l59 -51 -27 -114 c-14 -63 -28 -123 -30 -134
-27 -124 -83 -291 -124 -364 -26 -48 -57 -107 -69 -132 l-22 -47 -127 -1 c-70
0 -143 -6 -163 -12 -79 -26 -147 -106 -153 -179 -2 -24 -9 -35 -28 -43 -65
-25 -96 -46 -154 -102 -74 -70 -91 -106 -83 -175 13 -105 93 -173 267 -225 81
-24 233 -53 328 -61 31 -3 68 -7 82 -10 159 -26 993 -26 1160 0 14 3 52 7 85
10 33 3 69 8 80 10 11 2 45 7 75 11 30 3 71 10 90 15 19 5 53 11 74 15 125 18
291 74 337 112 61 51 84 143 53 208 -26 55 -120 142 -190 175 -57 28 -62 33
-68 69 -12 76 -68 139 -151 171 -17 7 -85 12 -162 12 l-132 0 -31 61 c-16 34
-48 95 -69 136 -46 84 -64 142 -120 371 -59 245 -59 218 5 270 55 44 305 293
402 400 28 31 59 64 69 75 17 20 32 20 473 21 250 0 471 3 492 6 235 36 444
226 507 458 11 41 23 93 26 115 3 22 9 54 12 70 4 17 7 32 8 35 1 3 4 27 9 53
4 27 10 59 12 70 3 12 6 33 9 47 2 14 20 115 39 225 20 110 39 214 42 230 2
17 16 91 30 165 35 186 39 316 13 411 -70 254 -289 446 -539 473 -25 2 -107 5
-182 5 l-138 1 0 145 c0 169 -7 191 -73 229 -58 34 -272 100 -359 111 -13 1
-50 7 -83 14 -33 6 -82 13 -110 16 -27 3 -61 8 -75 10 -14 3 -54 7 -90 11 -36
3 -81 7 -100 9 -19 2 -75 7 -125 10 -49 3 -117 8 -150 11 -68 6 -861 15 -866
9z m-1323 -1030 c1 -11 5 -72 8 -135 20 -429 162 -881 391 -1244 31 -49 52
-92 46 -95 -10 -6 -525 -5 -551 1 -46 12 -104 57 -126 100 -12 23 -31 104 -49
213 -2 11 -8 47 -14 80 -18 106 -21 120 -26 145 -5 25 -8 41 -25 140 -16 96
-20 114 -25 140 -14 70 -47 258 -50 280 -1 14 -5 34 -8 45 -7 22 -18 94 -22
139 -6 77 41 156 114 190 41 19 64 21 191 21 135 0 143 -1 146 -20z m3691 -3
c73 -38 117 -118 108 -198 -2 -23 -11 -79 -19 -125 -9 -46 -18 -102 -22 -124
-3 -22 -9 -56 -14 -75 -4 -19 -12 -57 -16 -85 -4 -27 -8 -52 -9 -55 0 -3 -5
-27 -10 -55 -5 -27 -9 -52 -10 -55 -4 -20 -16 -82 -20 -115 -4 -22 -8 -47 -10
-55 -2 -8 -7 -35 -10 -60 -3 -25 -10 -61 -15 -80 -5 -19 -11 -53 -14 -75 -20
-138 -39 -201 -72 -241 -60 -75 -72 -77 -381 -78 -154 -1 -273 3 -273 8 0 5
24 48 54 95 179 285 327 687 362 986 4 27 8 53 10 57 6 10 22 221 23 304 l1
52 148 -3 c128 -2 152 -5 189 -23z"/>
</g>
</svg>
